<svg xmlns="http://www.w3.org/2000/svg" viewBox="0 0 141.73 141.73"><defs><style>.cls-1{fill:#f8b032;}</style></defs><title>Asset 4</title><g id="Layer_2" data-name="Layer 2"><g id="Layer_1-2" data-name="Layer 1"><path class="cls-1" d="M71,0c10.33,0,20.65,0,31,0,22.37.11,39.26,16.57,39.55,39q.41,31.73,0,63.46c-.25,22.46-17.1,39.09-39.39,39.17q-31.22.12-62.42,0C17.37,141.6.48,125.11.2,102.67q-.42-31.73,0-63.46C.44,16.56,17.34.11,40,0,50.35,0,60.68,0,71,0ZM12.57,70.65c0,10.35-.05,20.69,0,31,.08,15.38,10.38,27.05,25.56,27.43q32.73.81,65.5,0c15-.37,25.44-12,25.5-27q.13-31.26,0-62.52c-.06-15-10.58-26.61-25.55-27q-32.73-.79-65.49,0c-15,.37-25.41,12-25.52,27C12.51,50,12.57,60.31,12.57,70.65Z"/><g id="_4gy4aa" data-name="4gy4aa"><path class="cls-1" d="M119.25,42.18c-1.13,1.39-2.17,2.85-3.41,4.13-1.54,1.59-3.2,3-4.88,4.49a1.92,1.92,0,0,0-.81,1.69c0,16.35-5.8,30.21-17.75,41.35a48.79,48.79,0,0,1-27.54,12.67,53,53,0,0,1-34.9-7c-.29-.18-.58-.36-.86-.55a.85.85,0,0,1-.14-.23A37.72,37.72,0,0,0,56.07,91c-8.52-.78-14.22-5-17.35-13a18.94,18.94,0,0,0,8-.35,19.38,19.38,0,0,1-10.42-6.72,18.65,18.65,0,0,1-4.07-11.8,19.8,19.8,0,0,0,8.33,2.26C35.62,57.7,32.86,53,32.43,47.05a18,18,0,0,1,2.46-10.54Q50,54.35,73,56a67,67,0,0,1,0-7c.87-8.1,8.11-15.07,16.2-15.86a18.71,18.71,0,0,1,15.31,5.23,1.57,1.57,0,0,0,1.21.35,35.15,35.15,0,0,0,9.82-3.61l1.24-.66a19.45,19.45,0,0,1-7.67,10.09,34.14,34.14,0,0,0,9.9-2.6Z"/></g></g></g></svg>