<svg xmlns="http://www.w3.org/2000/svg" viewBox="0 0 141.73 141.73"><defs><style>.cls-1{fill:#003c5c;}</style></defs><title>Asset 5</title><g id="Layer_2" data-name="Layer 2"><g id="Layer_1-2" data-name="Layer 1"><path class="cls-1" d="M71,0c10.33,0,20.65,0,31,0,22.37.11,39.26,16.57,39.55,39q.41,31.73,0,63.46c-.25,22.46-17.1,39.09-39.39,39.17q-31.22.12-62.42,0C17.37,141.6.48,125.11.2,102.67q-.42-31.73,0-63.46C.44,16.56,17.34.11,40,0,50.35,0,60.68,0,71,0ZM12.57,70.65c0,10.35-.05,20.69,0,31,.08,15.38,10.38,27.05,25.56,27.43q32.73.81,65.5,0c15-.37,25.44-12,25.5-27q.13-31.26,0-62.52c-.06-15-10.58-26.61-25.55-27q-32.73-.79-65.49,0c-15,.37-25.41,12-25.52,27C12.51,50,12.57,60.31,12.57,70.65Z"/><g id="_6ugICj" data-name="6ugICj"><path class="cls-1" d="M93.45,107.66v-.79q0-13.56,0-27.11a19.75,19.75,0,0,0-.65-5.41,8.16,8.16,0,0,0-13.43-4A9.35,9.35,0,0,0,76,77.63c0,1.84,0,3.68,0,5.52v24.52H58.28V55.43H76V61.8l.21.15a1.51,1.51,0,0,1,.11-.32c3.7-5.23,8.84-7.53,15.14-7.46a19.17,19.17,0,0,1,12.48,4.25,19.52,19.52,0,0,1,6.25,10.35,32.22,32.22,0,0,1,1.06,8.46q0,15,0,30v.46Z"/><path class="cls-1" d="M31.64,55.41H49.27v52.26H31.64Z"/><path class="cls-1" d="M40.55,48.91c-3.11,0-5.75-.89-7.73-3.16a8.91,8.91,0,0,1-1.73-9.17,8.65,8.65,0,0,1,7-5.89,11.22,11.22,0,0,1,7.45.85,9,9,0,0,1,4.89,8.92,8.91,8.91,0,0,1-6.75,8,15.77,15.77,0,0,1-1.69.33C41.47,48.88,40.93,48.88,40.55,48.91Z"/></g></g></g></svg>