<svg xmlns="http://www.w3.org/2000/svg" viewBox="0 0 141.73 141.73"><defs><style>.cls-1{fill:#f82c32;}</style></defs><title>Asset 6</title><g id="Layer_2" data-name="Layer 2"><g id="Layer_1-2" data-name="Layer 1"><path class="cls-1" d="M71,0c10.33,0,20.65,0,31,0,22.37.11,39.26,16.57,39.55,39q.41,31.73,0,63.46c-.25,22.46-17.1,39.09-39.39,39.17q-31.22.12-62.42,0C17.37,141.6.48,125.11.2,102.67q-.42-31.73,0-63.46C.44,16.56,17.34.11,40,0,50.35,0,60.68,0,71,0ZM12.57,70.65c0,10.35-.05,20.69,0,31,.08,15.38,10.38,27.05,25.56,27.43q32.73.81,65.5,0c15-.37,25.44-12,25.5-27q.13-31.26,0-62.52c-.06-15-10.58-26.61-25.55-27q-32.73-.79-65.49,0c-15,.37-25.41,12-25.52,27C12.51,50,12.57,60.31,12.57,70.65Z"/><g id="_6X2MeM" data-name="6X2MeM"><path class="cls-1" d="M77.65,65.85H92.28c2,0,2.7.74,2.7,2.69V83.92c0,1.93-.7,2.63-2.64,2.63H77.62v41c0,2.23-.68,2.9-2.91,2.9H59.21c-2.16,0-2.83-.67-2.83-2.8V86.55H43.89c-2,0-2.68-.7-2.68-2.68q0-7.65,0-15.29c0-2,.73-2.73,2.75-2.73H56.38V54.77a27.79,27.79,0,0,1,3.42-14.2A20.84,20.84,0,0,1,71,31.21a27.66,27.66,0,0,1,9.62-1.61H93c1.78,0,2.57.78,2.57,2.56q0,7.2,0,14.39c0,1.81-.75,2.55-2.55,2.57-3.38,0-6.76,0-10.14.15-1.83.07-3.59.61-4.48,2.43a7.08,7.08,0,0,0-.74,2.84C77.6,58.27,77.65,62,77.65,65.85Z"/></g></g></g></svg>