<svg xmlns="http://www.w3.org/2000/svg" viewBox="0 0 141.73 141.73"><defs><style>.cls-1{fill:#f8b032;}</style></defs><title>Asset 7</title><g id="Layer_2" data-name="Layer 2"><g id="Layer_1-2" data-name="Layer 1"><path class="cls-1" d="M71,0c10.33,0,20.65,0,31,0,22.37.11,39.26,16.57,39.55,39q.41,31.73,0,63.46c-.25,22.46-17.1,39.09-39.39,39.17q-31.22.12-62.42,0C17.37,141.6.48,125.11.2,102.67q-.42-31.73,0-63.46C.44,16.56,17.34.11,40,0,50.35,0,60.68,0,71,0ZM12.57,70.65c0,10.35-.05,20.69,0,31,.08,15.38,10.38,27.05,25.56,27.43q32.73.81,65.5,0c15-.37,25.44-12,25.5-27q.13-31.26,0-62.52c-.06-15-10.58-26.61-25.55-27q-32.73-.79-65.49,0c-15,.37-25.41,12-25.52,27C12.51,50,12.57,60.31,12.57,70.65Z"/><path class="cls-1" d="M107.22,70.7c.13,20-16.06,36.52-35.87,36.67A36.52,36.52,0,1,1,107.22,70.7ZM71.05,94.8A23.95,23.95,0,1,0,46.84,71,24,24,0,0,0,71.05,94.8Z"/><path class="cls-1" d="M108.77,41.82a9.16,9.16,0,0,1-9.12-9.11,9.55,9.55,0,0,1,9.28-9.11,9.06,9.06,0,0,1,8.95,9.26A8.76,8.76,0,0,1,108.77,41.82Z"/></g></g></svg>