<svg xmlns="http://www.w3.org/2000/svg" viewBox="0 0 362.83 80.26"><defs><style>.cls-1{fill:#fff;}</style></defs><title>Asset 8</title><g id="Layer_2" data-name="Layer 2"><g id="Layer_1-2" data-name="Layer 1"><path class="cls-1" d="M13.39,80.26A11.71,11.71,0,0,1,7.32,78.6,12.38,12.38,0,0,1,2.9,74.13a12.39,12.39,0,0,1,0-12.25,12.17,12.17,0,0,1,4.42-4.45,11.79,11.79,0,0,1,6.07-1.64,12,12,0,0,1,4.9,1,11.69,11.69,0,0,1,4.07,3l-3,2.74a8.12,8.12,0,0,0-2.72-2,7.85,7.85,0,0,0-7.25.4,8.22,8.22,0,0,0-2.92,11.1,8.18,8.18,0,0,0,2.94,3,7.67,7.67,0,0,0,4,1.11,7.59,7.59,0,0,0,3.44-.8,8.44,8.44,0,0,0,2.79-2.22l3.21,2.55a12,12,0,0,1-4.19,3.35A11.82,11.82,0,0,1,13.39,80.26Z"/><path class="cls-1" d="M68.44,76.76,66.91,80H62.39l11.12-24L84.09,80H79.6l-1.46-3.28ZM73.4,66l-3.06,6.64h6Z"/><path class="cls-1" d="M125.18,80v-24h8.93a9.1,9.1,0,0,1,3.08.52,8.6,8.6,0,0,1,2.65,1.52,7.59,7.59,0,0,1,1.86,2.42,6.68,6.68,0,0,1,0,5.75,8.13,8.13,0,0,1-1.86,2.44,8.57,8.57,0,0,1-2.65,1.51,9.11,9.11,0,0,1-3.08.53h-4.85l0,9.3Zm4.08-13.42h4.85a4.32,4.32,0,0,0,3-1.06,2.68,2.68,0,0,0,1.09-2.19,2.73,2.73,0,0,0-1.09-2.18,4.52,4.52,0,0,0-3-1h-4.85Z"/><path class="cls-1" d="M184.21,80v-24h4.12V80Z"/><path class="cls-1" d="M248.27,56.05v4.12h-7.22V80H237V60.17h-7.18V56.05Z"/><path class="cls-1" d="M290.93,76.76,289.4,80h-4.52l11.12-24,10.57,24h-4.48l-1.46-3.28Zm5-10.76-3.06,6.64h6Z"/><path class="cls-1" d="M347.67,80v-24h4.12V76h11V80Z"/><path class="cls-1" d="M30.51,36l3.39,6.11H0l5.27-8.23L22.82,6.11H3.39L0,0H33.9L29.42,7.07,11.08,36Z"/><path class="cls-1" d="M67.8,42.07H61.68V0H88.44V6.11H67.8v10H88.44L83.6,22.22H67.8V36H88.44v6.11Z"/><path class="cls-1" d="M124.7,42.07h-6.12V0h6.12Z"/><path class="cls-1" d="M161,42.07h-6.12V0H171a20.74,20.74,0,0,1,8.18,1.63,20.92,20.92,0,0,1,11.13,11.14A20.41,20.41,0,0,1,192,20.88a20.79,20.79,0,0,1-1.64,8.21,21.58,21.58,0,0,1-4.45,6.72,21.28,21.28,0,0,1-6.62,4.57,19.78,19.78,0,0,1-8.11,1.69h-5.94l2.3-6.11h3.64a13.72,13.72,0,0,0,5.75-1.21,15.16,15.16,0,0,0,4.66-3.29,15.57,15.57,0,0,0,3.14-4.81,14.65,14.65,0,0,0,1.15-5.8,14.1,14.1,0,0,0-1.18-5.76,14.69,14.69,0,0,0-7.87-7.83A14.65,14.65,0,0,0,171,6.11V6.05l-10,.06Z"/><path class="cls-1" d="M227.48,42.07h-6.11V0h6.11Zm20.16,0H227.48L230,36h17.62Z"/><path class="cls-1" d="M282.81,42.07h-6.12V0h26.76V6.11H282.81v10h20.64l-4.84,6.12h-15.8V36h20.64v6.11Z"/><path class="cls-1" d="M358.05,15.77a8.3,8.3,0,0,1-2.61,3.06,10.62,10.62,0,0,1-3.82,1.63,31.57,31.57,0,0,1-4.61.67l13.7,20.94h-7.26c-.93-1.45-2-3.08-3.16-4.87s-2.39-3.64-3.62-5.54-2.45-3.74-3.66-5.54-2.26-3.42-3.15-4.87V15.13h5.69c1,0,2-.12,2.87-.24a7.74,7.74,0,0,0,2.35-.66,4,4,0,0,0,1.56-1.29,3.53,3.53,0,0,0,.58-2.08v-.42A3.4,3.4,0,0,0,352,8a5.27,5.27,0,0,0-2.3-1.32,12.24,12.24,0,0,0-3.27-.48c-1.23,0-2.49-.07-3.78-.07l-5.39.07V42.07h-6.12V0h16.26a14.75,14.75,0,0,1,5.91,1,9.13,9.13,0,0,1,3.52,2.54,8.63,8.63,0,0,1,1.7,3.36,14.11,14.11,0,0,1,.46,3.51v.43A11,11,0,0,1,358.05,15.77Z"/></g></g></svg>